<mxfile host="app.diagrams.net" modified="2023-08-26T17:35:13.802Z" agent="Mozilla/5.0 (Windows NT 10.0; Win64; x64) AppleWebKit/537.36 (KHTML, like Gecko) Chrome/116.0.0.0 Safari/537.36 Edg/116.0.1938.54" etag="DM84Tu-AIbAP1zoTN_iC" version="21.6.9" type="github">
  <diagram name="Página-1" id="vufhJvKI8RO2NKhJ_CH_">
    <mxGraphModel dx="1434" dy="796" grid="1" gridSize="10" guides="1" tooltips="1" connect="1" arrows="1" fold="1" page="1" pageScale="1" pageWidth="827" pageHeight="1169" background="none" math="0" shadow="0">
      <root>
        <mxCell id="0" />
        <mxCell id="1" parent="0" />
        <mxCell id="pW5JMyD9-N8qxBRFn_aI-24" style="edgeStyle=orthogonalEdgeStyle;rounded=0;orthogonalLoop=1;jettySize=auto;html=1;exitX=0.5;exitY=0;exitDx=0;exitDy=0;entryX=0.5;entryY=1;entryDx=0;entryDy=0;" edge="1" parent="1" source="pW5JMyD9-N8qxBRFn_aI-1" target="pW5JMyD9-N8qxBRFn_aI-23">
          <mxGeometry relative="1" as="geometry" />
        </mxCell>
        <mxCell id="pW5JMyD9-N8qxBRFn_aI-52" style="edgeStyle=orthogonalEdgeStyle;rounded=0;orthogonalLoop=1;jettySize=auto;html=1;exitX=0.5;exitY=1;exitDx=0;exitDy=0;entryX=0.5;entryY=0;entryDx=0;entryDy=0;" edge="1" parent="1" source="pW5JMyD9-N8qxBRFn_aI-1" target="pW5JMyD9-N8qxBRFn_aI-10">
          <mxGeometry relative="1" as="geometry" />
        </mxCell>
        <mxCell id="pW5JMyD9-N8qxBRFn_aI-53" style="edgeStyle=orthogonalEdgeStyle;rounded=0;orthogonalLoop=1;jettySize=auto;html=1;exitX=0.5;exitY=1;exitDx=0;exitDy=0;entryX=0.5;entryY=0;entryDx=0;entryDy=0;" edge="1" parent="1" source="pW5JMyD9-N8qxBRFn_aI-1" target="pW5JMyD9-N8qxBRFn_aI-12">
          <mxGeometry relative="1" as="geometry" />
        </mxCell>
        <mxCell id="pW5JMyD9-N8qxBRFn_aI-54" style="edgeStyle=orthogonalEdgeStyle;rounded=0;orthogonalLoop=1;jettySize=auto;html=1;exitX=0.5;exitY=1;exitDx=0;exitDy=0;" edge="1" parent="1" source="pW5JMyD9-N8qxBRFn_aI-1" target="pW5JMyD9-N8qxBRFn_aI-14">
          <mxGeometry relative="1" as="geometry" />
        </mxCell>
        <mxCell id="pW5JMyD9-N8qxBRFn_aI-1" value="Productos" style="whiteSpace=wrap;html=1;align=center;rounded=0;" vertex="1" parent="1">
          <mxGeometry x="220" y="320" width="100" height="40" as="geometry" />
        </mxCell>
        <mxCell id="pW5JMyD9-N8qxBRFn_aI-45" style="edgeStyle=orthogonalEdgeStyle;rounded=0;orthogonalLoop=1;jettySize=auto;html=1;exitX=1;exitY=0.5;exitDx=0;exitDy=0;entryX=0;entryY=0.5;entryDx=0;entryDy=0;" edge="1" parent="1" source="pW5JMyD9-N8qxBRFn_aI-2" target="pW5JMyD9-N8qxBRFn_aI-9">
          <mxGeometry relative="1" as="geometry" />
        </mxCell>
        <mxCell id="pW5JMyD9-N8qxBRFn_aI-46" style="edgeStyle=orthogonalEdgeStyle;rounded=0;orthogonalLoop=1;jettySize=auto;html=1;exitX=1;exitY=0.5;exitDx=0;exitDy=0;entryX=0;entryY=0.5;entryDx=0;entryDy=0;" edge="1" parent="1" source="pW5JMyD9-N8qxBRFn_aI-2" target="pW5JMyD9-N8qxBRFn_aI-8">
          <mxGeometry relative="1" as="geometry" />
        </mxCell>
        <mxCell id="pW5JMyD9-N8qxBRFn_aI-47" style="edgeStyle=orthogonalEdgeStyle;rounded=0;orthogonalLoop=1;jettySize=auto;html=1;exitX=1;exitY=0.5;exitDx=0;exitDy=0;entryX=0;entryY=0.5;entryDx=0;entryDy=0;" edge="1" parent="1" source="pW5JMyD9-N8qxBRFn_aI-2" target="pW5JMyD9-N8qxBRFn_aI-5">
          <mxGeometry relative="1" as="geometry" />
        </mxCell>
        <mxCell id="pW5JMyD9-N8qxBRFn_aI-48" style="edgeStyle=orthogonalEdgeStyle;rounded=0;orthogonalLoop=1;jettySize=auto;html=1;exitX=1;exitY=0.5;exitDx=0;exitDy=0;entryX=0;entryY=0.5;entryDx=0;entryDy=0;" edge="1" parent="1" source="pW5JMyD9-N8qxBRFn_aI-2" target="pW5JMyD9-N8qxBRFn_aI-6">
          <mxGeometry relative="1" as="geometry" />
        </mxCell>
        <mxCell id="pW5JMyD9-N8qxBRFn_aI-2" value="Clientes" style="whiteSpace=wrap;html=1;align=center;rounded=0;" vertex="1" parent="1">
          <mxGeometry x="540" y="320" width="100" height="40" as="geometry" />
        </mxCell>
        <mxCell id="pW5JMyD9-N8qxBRFn_aI-4" value="Comprar" style="shape=rhombus;perimeter=rhombusPerimeter;whiteSpace=wrap;html=1;align=center;rounded=0;" vertex="1" parent="1">
          <mxGeometry x="390" y="320" width="90" height="40" as="geometry" />
        </mxCell>
        <mxCell id="pW5JMyD9-N8qxBRFn_aI-5" value="RFC" style="ellipse;whiteSpace=wrap;html=1;align=center;fontStyle=4;dashed=1;fillColor=#e1d5e7;strokeColor=#9673a6;rounded=0;" vertex="1" parent="1">
          <mxGeometry x="700" y="360" width="100" height="40" as="geometry" />
        </mxCell>
        <mxCell id="pW5JMyD9-N8qxBRFn_aI-6" value="Nombre" style="ellipse;whiteSpace=wrap;html=1;align=center;fillColor=#f8cecc;strokeColor=#b85450;dashed=1;rounded=0;" vertex="1" parent="1">
          <mxGeometry x="700" y="430" width="100" height="40" as="geometry" />
        </mxCell>
        <mxCell id="pW5JMyD9-N8qxBRFn_aI-8" value="Dirección" style="ellipse;whiteSpace=wrap;html=1;align=center;fillColor=#dae8fc;strokeColor=#6c8ebf;dashed=1;rounded=0;" vertex="1" parent="1">
          <mxGeometry x="700" y="270" width="100" height="40" as="geometry" />
        </mxCell>
        <mxCell id="pW5JMyD9-N8qxBRFn_aI-9" value="Fecha de Nacimiento" style="ellipse;whiteSpace=wrap;html=1;align=center;rounded=0;" vertex="1" parent="1">
          <mxGeometry x="700" y="200" width="100" height="40" as="geometry" />
        </mxCell>
        <mxCell id="pW5JMyD9-N8qxBRFn_aI-10" value="Codigo" style="ellipse;whiteSpace=wrap;html=1;align=center;fontStyle=4;rounded=0;" vertex="1" parent="1">
          <mxGeometry x="110" y="440" width="100" height="40" as="geometry" />
        </mxCell>
        <mxCell id="pW5JMyD9-N8qxBRFn_aI-12" value="Nombre" style="ellipse;whiteSpace=wrap;html=1;align=center;dashed=1;fillColor=#f8cecc;strokeColor=#b85450;rounded=0;" vertex="1" parent="1">
          <mxGeometry x="230" y="440" width="100" height="40" as="geometry" />
        </mxCell>
        <mxCell id="pW5JMyD9-N8qxBRFn_aI-14" value="Precio Unitario" style="ellipse;whiteSpace=wrap;html=1;align=center;rounded=0;" vertex="1" parent="1">
          <mxGeometry x="340" y="440" width="100" height="40" as="geometry" />
        </mxCell>
        <mxCell id="pW5JMyD9-N8qxBRFn_aI-15" value="" style="endArrow=none;html=1;rounded=0;exitX=1;exitY=0.5;exitDx=0;exitDy=0;" edge="1" parent="1" source="pW5JMyD9-N8qxBRFn_aI-4">
          <mxGeometry relative="1" as="geometry">
            <mxPoint x="380" y="339.5" as="sourcePoint" />
            <mxPoint x="540" y="339.5" as="targetPoint" />
          </mxGeometry>
        </mxCell>
        <mxCell id="pW5JMyD9-N8qxBRFn_aI-16" value="1" style="resizable=0;html=1;whiteSpace=wrap;align=right;verticalAlign=bottom;rounded=0;" connectable="0" vertex="1" parent="pW5JMyD9-N8qxBRFn_aI-15">
          <mxGeometry x="1" relative="1" as="geometry" />
        </mxCell>
        <mxCell id="pW5JMyD9-N8qxBRFn_aI-17" value="N" style="text;html=1;align=center;verticalAlign=middle;resizable=0;points=[];autosize=1;strokeColor=none;fillColor=none;rounded=0;" vertex="1" parent="1">
          <mxGeometry x="470" y="320" width="30" height="30" as="geometry" />
        </mxCell>
        <mxCell id="pW5JMyD9-N8qxBRFn_aI-19" value="" style="endArrow=none;html=1;rounded=0;exitX=1;exitY=0.5;exitDx=0;exitDy=0;entryX=0;entryY=0.5;entryDx=0;entryDy=0;" edge="1" parent="1" source="pW5JMyD9-N8qxBRFn_aI-1" target="pW5JMyD9-N8qxBRFn_aI-4">
          <mxGeometry relative="1" as="geometry">
            <mxPoint x="320" y="350" as="sourcePoint" />
            <mxPoint x="480" y="350" as="targetPoint" />
          </mxGeometry>
        </mxCell>
        <mxCell id="pW5JMyD9-N8qxBRFn_aI-20" value="1" style="resizable=0;html=1;whiteSpace=wrap;align=left;verticalAlign=bottom;rounded=0;" connectable="0" vertex="1" parent="pW5JMyD9-N8qxBRFn_aI-19">
          <mxGeometry x="-1" relative="1" as="geometry" />
        </mxCell>
        <mxCell id="pW5JMyD9-N8qxBRFn_aI-21" value="N" style="resizable=0;html=1;whiteSpace=wrap;align=right;verticalAlign=bottom;rounded=0;" connectable="0" vertex="1" parent="pW5JMyD9-N8qxBRFn_aI-19">
          <mxGeometry x="1" relative="1" as="geometry" />
        </mxCell>
        <mxCell id="pW5JMyD9-N8qxBRFn_aI-49" style="edgeStyle=orthogonalEdgeStyle;rounded=0;orthogonalLoop=1;jettySize=auto;html=1;exitX=0.5;exitY=0;exitDx=0;exitDy=0;entryX=0.5;entryY=1;entryDx=0;entryDy=0;" edge="1" parent="1" source="pW5JMyD9-N8qxBRFn_aI-22" target="pW5JMyD9-N8qxBRFn_aI-39">
          <mxGeometry relative="1" as="geometry" />
        </mxCell>
        <mxCell id="pW5JMyD9-N8qxBRFn_aI-50" style="edgeStyle=orthogonalEdgeStyle;rounded=0;orthogonalLoop=1;jettySize=auto;html=1;exitX=0.5;exitY=0;exitDx=0;exitDy=0;entryX=0.5;entryY=1;entryDx=0;entryDy=0;" edge="1" parent="1" source="pW5JMyD9-N8qxBRFn_aI-22" target="pW5JMyD9-N8qxBRFn_aI-40">
          <mxGeometry relative="1" as="geometry" />
        </mxCell>
        <mxCell id="pW5JMyD9-N8qxBRFn_aI-51" style="edgeStyle=orthogonalEdgeStyle;rounded=0;orthogonalLoop=1;jettySize=auto;html=1;exitX=0.5;exitY=0;exitDx=0;exitDy=0;entryX=0.5;entryY=1;entryDx=0;entryDy=0;" edge="1" parent="1" source="pW5JMyD9-N8qxBRFn_aI-22" target="pW5JMyD9-N8qxBRFn_aI-41">
          <mxGeometry relative="1" as="geometry" />
        </mxCell>
        <mxCell id="pW5JMyD9-N8qxBRFn_aI-22" value="Provedores" style="whiteSpace=wrap;html=1;align=center;rounded=0;" vertex="1" parent="1">
          <mxGeometry x="220" y="140" width="100" height="40" as="geometry" />
        </mxCell>
        <mxCell id="pW5JMyD9-N8qxBRFn_aI-25" style="edgeStyle=orthogonalEdgeStyle;rounded=0;orthogonalLoop=1;jettySize=auto;html=1;exitX=0.5;exitY=0;exitDx=0;exitDy=0;entryX=0.5;entryY=1;entryDx=0;entryDy=0;" edge="1" parent="1" source="pW5JMyD9-N8qxBRFn_aI-23" target="pW5JMyD9-N8qxBRFn_aI-22">
          <mxGeometry relative="1" as="geometry" />
        </mxCell>
        <mxCell id="pW5JMyD9-N8qxBRFn_aI-23" value="Suministrar" style="shape=rhombus;perimeter=rhombusPerimeter;whiteSpace=wrap;html=1;align=center;rounded=0;" vertex="1" parent="1">
          <mxGeometry x="220" y="230" width="100" height="40" as="geometry" />
        </mxCell>
        <mxCell id="pW5JMyD9-N8qxBRFn_aI-26" value="" style="shape=table;startSize=0;container=1;collapsible=1;childLayout=tableLayout;fixedRows=1;rowLines=0;fontStyle=0;align=center;resizeLast=1;strokeColor=none;fillColor=none;collapsible=0;whiteSpace=wrap;html=1;rounded=0;" vertex="1" parent="1">
          <mxGeometry x="234" y="270" width="180" height="30" as="geometry" />
        </mxCell>
        <mxCell id="pW5JMyD9-N8qxBRFn_aI-27" value="" style="shape=tableRow;horizontal=0;startSize=0;swimlaneHead=0;swimlaneBody=0;fillColor=none;collapsible=0;dropTarget=0;points=[[0,0.5],[1,0.5]];portConstraint=eastwest;top=0;left=0;right=0;bottom=0;rounded=0;" vertex="1" parent="pW5JMyD9-N8qxBRFn_aI-26">
          <mxGeometry width="180" height="30" as="geometry" />
        </mxCell>
        <mxCell id="pW5JMyD9-N8qxBRFn_aI-28" value="" style="shape=partialRectangle;connectable=0;fillColor=none;top=0;left=0;bottom=0;right=0;editable=1;overflow=hidden;rounded=0;" vertex="1" parent="pW5JMyD9-N8qxBRFn_aI-27">
          <mxGeometry width="30" height="30" as="geometry">
            <mxRectangle width="30" height="30" as="alternateBounds" />
          </mxGeometry>
        </mxCell>
        <mxCell id="pW5JMyD9-N8qxBRFn_aI-29" value="1" style="shape=partialRectangle;connectable=0;fillColor=none;top=0;left=0;bottom=0;right=0;align=left;spacingLeft=6;overflow=hidden;rounded=0;" vertex="1" parent="pW5JMyD9-N8qxBRFn_aI-27">
          <mxGeometry x="30" width="150" height="30" as="geometry">
            <mxRectangle width="150" height="30" as="alternateBounds" />
          </mxGeometry>
        </mxCell>
        <mxCell id="pW5JMyD9-N8qxBRFn_aI-30" value="" style="shape=tableRow;horizontal=0;startSize=0;swimlaneHead=0;swimlaneBody=0;fillColor=none;collapsible=0;dropTarget=0;points=[[0,0.5],[1,0.5]];portConstraint=eastwest;top=0;left=0;right=0;bottom=0;rounded=0;" vertex="1" parent="1">
          <mxGeometry x="234" y="300" width="180" height="30" as="geometry" />
        </mxCell>
        <mxCell id="pW5JMyD9-N8qxBRFn_aI-31" value="" style="shape=partialRectangle;connectable=0;fillColor=none;top=0;left=0;bottom=0;right=0;editable=1;overflow=hidden;rounded=0;" vertex="1" parent="pW5JMyD9-N8qxBRFn_aI-30">
          <mxGeometry width="30" height="30" as="geometry">
            <mxRectangle width="30" height="30" as="alternateBounds" />
          </mxGeometry>
        </mxCell>
        <mxCell id="pW5JMyD9-N8qxBRFn_aI-32" value="1" style="shape=partialRectangle;connectable=0;fillColor=none;top=0;left=0;bottom=0;right=0;align=left;spacingLeft=6;overflow=hidden;rounded=0;" vertex="1" parent="pW5JMyD9-N8qxBRFn_aI-30">
          <mxGeometry x="30" width="150" height="30" as="geometry">
            <mxRectangle width="150" height="30" as="alternateBounds" />
          </mxGeometry>
        </mxCell>
        <mxCell id="pW5JMyD9-N8qxBRFn_aI-33" value="" style="shape=tableRow;horizontal=0;startSize=0;swimlaneHead=0;swimlaneBody=0;fillColor=none;collapsible=0;dropTarget=0;points=[[0,0.5],[1,0.5]];portConstraint=eastwest;top=0;left=0;right=0;bottom=0;rounded=0;" vertex="1" parent="1">
          <mxGeometry x="240" y="170" width="180" height="30" as="geometry" />
        </mxCell>
        <mxCell id="pW5JMyD9-N8qxBRFn_aI-34" value="" style="shape=partialRectangle;connectable=0;fillColor=none;top=0;left=0;bottom=0;right=0;editable=1;overflow=hidden;rounded=0;" vertex="1" parent="pW5JMyD9-N8qxBRFn_aI-33">
          <mxGeometry width="30" height="30" as="geometry">
            <mxRectangle width="30" height="30" as="alternateBounds" />
          </mxGeometry>
        </mxCell>
        <mxCell id="pW5JMyD9-N8qxBRFn_aI-35" value="1" style="shape=partialRectangle;connectable=0;fillColor=none;top=0;left=0;bottom=0;right=0;align=left;spacingLeft=6;overflow=hidden;rounded=0;" vertex="1" parent="pW5JMyD9-N8qxBRFn_aI-33">
          <mxGeometry x="30" width="150" height="30" as="geometry">
            <mxRectangle width="150" height="30" as="alternateBounds" />
          </mxGeometry>
        </mxCell>
        <mxCell id="pW5JMyD9-N8qxBRFn_aI-36" value="" style="shape=tableRow;horizontal=0;startSize=0;swimlaneHead=0;swimlaneBody=0;fillColor=none;collapsible=0;dropTarget=0;points=[[0,0.5],[1,0.5]];portConstraint=eastwest;top=0;left=0;right=0;bottom=0;rounded=0;" vertex="1" parent="1">
          <mxGeometry x="270" y="200" width="180" height="30" as="geometry" />
        </mxCell>
        <mxCell id="pW5JMyD9-N8qxBRFn_aI-37" value="" style="shape=partialRectangle;connectable=0;fillColor=none;top=0;left=0;bottom=0;right=0;editable=1;overflow=hidden;rounded=0;" vertex="1" parent="pW5JMyD9-N8qxBRFn_aI-36">
          <mxGeometry width="30" height="30" as="geometry">
            <mxRectangle width="30" height="30" as="alternateBounds" />
          </mxGeometry>
        </mxCell>
        <mxCell id="pW5JMyD9-N8qxBRFn_aI-38" value="N" style="shape=partialRectangle;connectable=0;fillColor=none;top=0;left=0;bottom=0;right=0;align=left;spacingLeft=6;overflow=hidden;rounded=0;" vertex="1" parent="1">
          <mxGeometry x="264" y="210" width="150" height="30" as="geometry">
            <mxRectangle width="150" height="30" as="alternateBounds" />
          </mxGeometry>
        </mxCell>
        <mxCell id="pW5JMyD9-N8qxBRFn_aI-39" value="RFC" style="ellipse;whiteSpace=wrap;html=1;align=center;dashed=1;fillColor=#e1d5e7;strokeColor=#9673a6;rounded=0;" vertex="1" parent="1">
          <mxGeometry x="120" y="60" width="100" height="40" as="geometry" />
        </mxCell>
        <mxCell id="pW5JMyD9-N8qxBRFn_aI-40" value="Nombre" style="ellipse;whiteSpace=wrap;html=1;align=center;dashed=1;fillColor=#f8cecc;strokeColor=#b85450;rounded=0;" vertex="1" parent="1">
          <mxGeometry x="274" y="60" width="100" height="40" as="geometry" />
        </mxCell>
        <mxCell id="pW5JMyD9-N8qxBRFn_aI-41" value="Dirección" style="ellipse;whiteSpace=wrap;html=1;align=center;fillColor=#dae8fc;strokeColor=#6c8ebf;dashed=1;rounded=0;" vertex="1" parent="1">
          <mxGeometry x="414" y="60" width="100" height="40" as="geometry" />
        </mxCell>
      </root>
    </mxGraphModel>
  </diagram>
</mxfile>
